<svg xmlns="http://www.w3.org/2000/svg" xmlns:xlink="http://www.w3.org/1999/xlink" width="794" zoomAndPan="magnify" viewBox="0 0 595.5 842.249979" height="1123" preserveAspectRatio="xMidYMid meet" version="1.0"><defs><clipPath id="54fcb1a967"><path d="M 402 711 L 423 711 L 423 741.484375 L 402 741.484375 Z M 402 711 " clip-rule="nonzero"/></clipPath></defs><path stroke-linecap="butt" transform="matrix(0.614561, 0, 0, 0.614561, 174.430878, 465.706766)" fill-opacity="1" fill="#253237" fill-rule="nonzero" stroke-linejoin="miter" d="M 160.974377 389.105978 C 160.974377 389.105978 -160.971897 389.105978 -160.971897 389.105978 C -188.996242 389.105978 -211.713187 366.389033 -211.713187 338.371044 C -211.713187 338.371044 -211.713187 -338.370181 -211.713187 -338.370181 C -211.713187 -366.38817 -188.996242 -389.105115 -160.971897 -389.105115 C -160.971897 -389.105115 160.974377 -389.105115 160.974377 -389.105115 C 188.998722 -389.105115 211.715668 -366.38817 211.715668 -338.370181 C 211.715668 -338.370181 211.715668 338.371044 211.715668 338.371044 C 211.715668 366.389033 188.998722 389.105978 160.974377 389.105978 Z M 160.974377 389.105978 " stroke="#253237" stroke-width="2" stroke-opacity="1" stroke-miterlimit="10"/><path stroke-linecap="round" transform="matrix(0.614561, 0, 0, 0.614561, 174.430878, 465.706766)" fill-opacity="1" fill="#ffffff" fill-rule="nonzero" stroke-linejoin="round" d="M 156.162758 359.263769 C 156.162758 359.263769 -156.166634 359.263769 -156.166634 359.263769 C -174.650371 359.263769 -189.638215 344.275924 -189.638215 325.785831 C -189.638215 325.785831 -189.638215 -325.784968 -189.638215 -325.784968 C -189.638215 -344.275061 -174.650371 -359.262905 -156.166634 -359.262905 C -156.166634 -359.262905 156.162758 -359.262905 156.162758 -359.262905 C 174.652851 -359.262905 189.634339 -344.275061 189.634339 -325.784968 C 189.634339 -325.784968 189.634339 325.785831 189.634339 325.785831 C 189.634339 344.275924 174.652851 359.263769 156.162758 359.263769 Z M 156.162758 359.263769 " stroke="#253237" stroke-width="2" stroke-opacity="1" stroke-miterlimit="4"/><path fill="#d4d4d4" d="M 125.722656 338.222656 C 125.722656 338.222656 57.886719 338.222656 57.886719 338.222656 C 57.886719 338.222656 57.886719 265.488281 57.886719 265.488281 C 57.886719 254.125 67.097656 244.921875 78.457031 244.921875 C 78.457031 244.921875 116.554688 244.921875 116.554688 244.921875 C 116.554688 244.921875 125.722656 338.222656 125.722656 338.222656 Z M 125.722656 338.222656 " fill-opacity="1" fill-rule="nonzero"/><path fill="#d4d4d4" d="M 215.160156 244.921875 C 215.160156 244.921875 215.160156 338.222656 215.160156 338.222656 C 215.160156 338.222656 137.964844 338.222656 137.964844 338.222656 C 137.964844 338.222656 129.335938 244.921875 129.335938 244.921875 C 129.335938 244.921875 215.160156 244.921875 215.160156 244.921875 Z M 215.160156 244.921875 " fill-opacity="1" fill-rule="nonzero"/><path fill="#d4d4d4" d="M 184.09375 353.285156 C 184.09375 353.285156 169.03125 469.082031 169.03125 469.082031 C 169.03125 469.082031 57.886719 469.082031 57.886719 469.082031 C 57.886719 469.082031 57.886719 353.285156 57.886719 353.285156 C 57.886719 353.285156 184.09375 353.285156 184.09375 353.285156 Z M 184.09375 353.285156 " fill-opacity="1" fill-rule="nonzero"/><path fill="#d4d4d4" d="M 273.847656 469.082031 C 273.847656 469.082031 184.09375 469.082031 184.09375 469.082031 C 184.09375 469.082031 197.273438 353.285156 197.273438 353.285156 C 197.273438 353.285156 273.847656 353.285156 273.847656 353.285156 C 273.847656 353.285156 273.847656 469.082031 273.847656 469.082031 Z M 273.847656 469.082031 " fill-opacity="1" fill-rule="nonzero"/><path fill="#d4d4d4" d="M 290.976562 265.488281 C 290.976562 265.488281 290.976562 274.832031 290.976562 274.832031 C 290.976562 274.832031 231.796875 274.832031 231.796875 274.832031 C 231.796875 274.832031 231.796875 244.921875 231.796875 244.921875 C 231.796875 244.921875 270.402344 244.921875 270.402344 244.921875 C 281.765625 244.921875 290.976562 254.125 290.976562 265.488281 Z M 290.976562 265.488281 " fill-opacity="1" fill-rule="nonzero"/><path fill="#d4d4d4" d="M 290.976562 338.222656 C 290.976562 338.222656 231.796875 338.222656 231.796875 338.222656 C 231.796875 338.222656 231.796875 287.378906 231.796875 287.378906 C 231.796875 287.378906 290.976562 287.378906 290.976562 287.378906 C 290.976562 287.378906 290.976562 338.222656 290.976562 338.222656 Z M 290.976562 338.222656 " fill-opacity="1" fill-rule="nonzero"/><path fill="#d4d4d4" d="M 134.089844 580.175781 C 134.089844 580.175781 76.765625 580.175781 76.765625 580.175781 C 76.765625 580.175781 76.765625 486.96875 76.765625 486.96875 C 76.765625 486.96875 143.925781 486.96875 143.925781 486.96875 C 143.925781 486.96875 134.089844 580.175781 134.089844 580.175781 Z M 134.089844 580.175781 " fill-opacity="1" fill-rule="nonzero"/><path fill="#d4d4d4" d="M 65.785156 580.175781 C 65.785156 580.175781 57.886719 580.175781 57.886719 580.175781 C 57.886719 580.175781 57.886719 486.972656 57.886719 486.972656 C 57.886719 486.972656 65.785156 486.972656 65.785156 486.972656 C 65.785156 486.972656 65.785156 580.175781 65.785156 580.175781 Z M 65.785156 580.175781 " fill-opacity="1" fill-rule="nonzero"/><path fill="#d4d4d4" d="M 290.976562 435.5 C 290.976562 435.5 283.886719 435.5 283.886719 435.5 C 283.886719 435.5 283.886719 353.285156 283.886719 353.285156 C 283.886719 353.285156 290.976562 353.285156 290.976562 353.285156 C 290.976562 353.285156 290.976562 435.5 290.976562 435.5 Z M 290.976562 435.5 " fill-opacity="1" fill-rule="nonzero"/><path fill="#d4d4d4" d="M 225.515625 534.984375 C 225.515625 534.984375 147.898438 534.984375 147.898438 534.984375 C 147.898438 534.984375 152.503906 486.96875 152.503906 486.96875 C 152.503906 486.96875 225.515625 486.96875 225.515625 486.96875 C 225.515625 486.96875 225.515625 534.984375 225.515625 534.984375 Z M 225.515625 534.984375 " fill-opacity="1" fill-rule="nonzero"/><path fill="#d4d4d4" d="M 273.84375 534.984375 C 273.84375 534.984375 233.050781 534.984375 233.050781 534.984375 C 233.050781 534.984375 233.050781 486.96875 233.050781 486.96875 C 233.050781 486.96875 273.84375 486.96875 273.84375 486.96875 C 273.84375 486.96875 273.84375 534.984375 273.84375 534.984375 Z M 273.84375 534.984375 " fill-opacity="1" fill-rule="nonzero"/><path fill="#d4d4d4" d="M 206.375 580.175781 C 206.375 580.175781 143.925781 580.175781 143.925781 580.175781 C 143.925781 580.175781 147.0625 541.261719 147.0625 541.261719 C 147.0625 541.261719 206.375 541.261719 206.375 541.261719 C 206.375 541.261719 206.375 580.175781 206.375 580.175781 Z M 206.375 580.175781 " fill-opacity="1" fill-rule="nonzero"/><path fill="#d4d4d4" d="M 273.84375 580.175781 C 273.84375 580.175781 212.652344 580.175781 212.652344 580.175781 C 212.652344 580.175781 212.652344 541.261719 212.652344 541.261719 C 212.652344 541.261719 273.84375 541.261719 273.84375 541.261719 C 273.84375 541.261719 273.84375 580.175781 273.84375 580.175781 Z M 273.84375 580.175781 " fill-opacity="1" fill-rule="nonzero"/><path fill="#d4d4d4" d="M 94.550781 657.375 C 94.550781 657.375 57.886719 657.375 57.886719 657.375 C 57.886719 657.375 57.886719 590.058594 57.886719 590.058594 C 57.886719 590.058594 89.949219 590.058594 89.949219 590.058594 C 89.949219 590.058594 94.550781 657.375 94.550781 657.375 Z M 94.550781 657.375 " fill-opacity="1" fill-rule="nonzero"/><path fill="#d4d4d4" d="M 180.796875 657.375 C 180.796875 657.375 105.148438 656.050781 105.148438 656.050781 C 105.148438 656.050781 100.304688 590.058594 100.304688 590.058594 C 100.304688 590.058594 180.796875 590.058594 180.796875 590.058594 C 180.796875 590.058594 180.796875 657.375 180.796875 657.375 Z M 180.796875 657.375 " fill-opacity="1" fill-rule="nonzero"/><path fill="#d4d4d4" d="M 248.113281 623.71875 C 248.113281 623.71875 186.605469 623.71875 186.605469 623.71875 C 186.605469 623.71875 186.605469 590.058594 186.605469 590.058594 C 186.605469 590.058594 248.113281 590.058594 248.113281 590.058594 C 248.113281 590.058594 248.113281 623.71875 248.113281 623.71875 Z M 248.113281 623.71875 " fill-opacity="1" fill-rule="nonzero"/><path fill="#d4d4d4" d="M 248.113281 657.375 C 248.113281 657.375 186.605469 657.375 186.605469 657.375 C 186.605469 657.375 186.605469 629.445312 186.605469 629.445312 C 186.605469 629.445312 248.113281 629.445312 248.113281 629.445312 C 248.113281 629.445312 248.113281 657.375 248.113281 657.375 Z M 248.113281 657.375 " fill-opacity="1" fill-rule="nonzero"/><path fill="#d4d4d4" d="M 290.976562 503.914062 C 290.976562 503.914062 283.886719 503.914062 283.886719 503.914062 C 283.886719 503.914062 283.886719 442.722656 283.886719 442.722656 C 283.886719 442.722656 290.976562 442.722656 290.976562 442.722656 C 290.976562 442.722656 290.976562 503.914062 290.976562 503.914062 Z M 290.976562 503.914062 " fill-opacity="1" fill-rule="nonzero"/><path fill="#d4d4d4" d="M 89.949219 666.320312 C 89.949219 666.320312 89.949219 686.496094 89.949219 686.496094 C 89.949219 686.496094 78.457031 686.496094 78.457031 686.496094 C 67.226562 686.496094 58.101562 677.496094 57.894531 666.320312 C 57.894531 666.320312 89.949219 666.320312 89.949219 666.320312 Z M 89.949219 666.320312 " fill-opacity="1" fill-rule="nonzero"/><path fill="#d4d4d4" d="M 180.800781 686.496094 C 180.800781 686.496094 100.304688 686.496094 100.304688 686.496094 C 100.304688 686.496094 100.304688 666.320312 100.304688 666.320312 C 100.304688 666.320312 180.800781 666.320312 180.800781 666.320312 C 180.800781 666.320312 180.800781 686.496094 180.800781 686.496094 Z M 180.800781 686.496094 " fill-opacity="1" fill-rule="nonzero"/><path fill="#d4d4d4" d="M 248.113281 686.496094 C 248.113281 686.496094 186.605469 686.496094 186.605469 686.496094 C 186.605469 686.496094 186.605469 666.320312 186.605469 666.320312 C 186.605469 666.320312 248.113281 666.320312 248.113281 666.320312 C 248.113281 666.320312 248.113281 686.496094 248.113281 686.496094 Z M 248.113281 686.496094 " fill-opacity="1" fill-rule="nonzero"/><path fill="#d4d4d4" d="M 290.976562 657.375 C 290.976562 657.375 255.644531 657.375 255.644531 657.375 C 255.644531 657.375 255.644531 590.058594 255.644531 590.058594 C 255.644531 590.058594 290.976562 590.058594 290.976562 590.058594 C 290.976562 590.058594 290.976562 657.375 290.976562 657.375 Z M 290.976562 657.375 " fill-opacity="1" fill-rule="nonzero"/><path fill="#d4d4d4" d="M 290.976562 580.175781 C 290.976562 580.175781 283.886719 580.175781 283.886719 580.175781 C 283.886719 580.175781 283.886719 510.976562 283.886719 510.976562 C 283.886719 510.976562 290.976562 510.976562 290.976562 510.976562 C 290.976562 510.976562 290.976562 580.175781 290.976562 580.175781 Z M 290.976562 580.175781 " fill-opacity="1" fill-rule="nonzero"/><path fill="#d4d4d4" d="M 290.972656 666.320312 C 290.761719 677.496094 281.636719 686.496094 270.402344 686.496094 C 270.402344 686.496094 253.445312 686.496094 253.445312 686.496094 C 253.445312 686.496094 253.445312 666.320312 253.445312 666.320312 C 253.445312 666.320312 290.972656 666.320312 290.972656 666.320312 Z M 290.972656 666.320312 " fill-opacity="1" fill-rule="nonzero"/><path stroke-linecap="round" transform="matrix(0.614561, 0, 0, 0.614561, 174.432106, 652.094365)" fill-opacity="1" fill="#ffffff" fill-rule="nonzero" stroke-linejoin="round" d="M 189.638698 -55.973417 C 189.638698 -55.973417 189.638698 22.506191 189.638698 22.506191 C 189.638698 40.983572 174.650853 55.977773 156.16076 55.977773 C 156.16076 55.977773 -156.168631 55.977773 -156.168631 55.977773 C -174.652368 55.977773 -189.640213 40.983572 -189.640213 22.506191 C -189.640213 22.506191 -189.640213 -55.973417 -189.640213 -55.973417 C -189.640213 -55.973417 189.638698 -55.973417 189.638698 -55.973417 Z M 189.638698 -55.973417 " stroke="#253237" stroke-width="2" stroke-opacity="1" stroke-miterlimit="4"/><path stroke-linecap="round" transform="matrix(0.614561, 0, 0, 0.614561, 87.607608, 653.953477)" fill-opacity="1" fill="#b27f0f" fill-rule="nonzero" stroke-linejoin="round" d="M 22.980423 -0.000572681 C 22.980423 12.692695 12.689786 22.976975 -0.00348155 22.976975 C -12.690393 22.976975 -22.981029 12.692695 -22.981029 -0.000572681 C -22.981029 -12.693841 -12.690393 -22.978121 -0.00348155 -22.978121 C 12.689786 -22.978121 22.980423 -12.693841 22.980423 -0.000572681 Z M 22.980423 -0.000572681 " stroke="#253237" stroke-width="2" stroke-opacity="1" stroke-miterlimit="4"/><path stroke-linecap="round" transform="matrix(0.614561, 0, 0, 0.614561, 88.330948, 655.028943)" fill="none" stroke-linejoin="round" d="M -10.918135 12.20124 C -10.918135 12.20124 -10.918135 -12.200089 -10.918135 -12.200089 C -10.918135 -12.200089 10.699193 -12.200089 10.699193 -12.200089 C 10.699193 -12.200089 6.917273 -3.962495 6.917273 -3.962495 C 6.917273 -3.962495 10.921659 1.853399 10.921659 1.853399 C 10.921659 1.853399 -10.918135 1.91696 -10.918135 1.91696 " stroke="#ffffff" stroke-width="2" stroke-opacity="1" stroke-miterlimit="4"/><path stroke-linecap="round" transform="matrix(0.614561, 0, 0, 0.614561, 161.598248, 649.233017)" fill-opacity="1" fill="#d4d4d4" fill-rule="nonzero" stroke-linejoin="round" d="M 75.955247 3.828623 C 75.955247 3.828623 -75.957173 3.828623 -75.957173 3.828623 C -78.073777 3.828623 -79.789942 2.112458 -79.789942 0.0022102 C -79.789942 -2.114394 -78.073777 -3.830559 -75.957173 -3.830559 C -75.957173 -3.830559 75.955247 -3.830559 75.955247 -3.830559 C 78.071851 -3.830559 79.788016 -2.114394 79.788016 0.0022102 C 79.788016 2.112458 78.071851 3.828623 75.955247 3.828623 Z M 75.955247 3.828623 " stroke="#253237" stroke-width="2" stroke-opacity="1" stroke-miterlimit="4"/><path stroke-linecap="round" transform="matrix(0.614561, 0, 0, 0.614561, 151.006899, 660.242237)" fill-opacity="1" fill="#d4d4d4" fill-rule="nonzero" stroke-linejoin="round" d="M 58.726124 3.83269 C 58.726124 3.83269 -58.723152 3.83269 -58.723152 3.83269 C -60.839756 3.83269 -62.555921 2.116524 -62.555921 -0.0000798318 C -62.555921 -2.116684 -60.839756 -3.832849 -58.723152 -3.832849 C -58.723152 -3.832849 58.726124 -3.832849 58.726124 -3.832849 C 60.836372 -3.832849 62.552537 -2.116684 62.552537 -0.0000798318 C 62.552537 2.116524 60.836372 3.83269 58.726124 3.83269 Z M 58.726124 3.83269 " stroke="#253237" stroke-width="2" stroke-opacity="1" stroke-miterlimit="4"/><path stroke-linecap="butt" transform="matrix(0.614561, 0, 0, 0.614561, 174.430878, 465.706766)" fill="none" stroke-linejoin="miter" d="M 156.162758 359.263769 C 156.162758 359.263769 -156.166634 359.263769 -156.166634 359.263769 C -174.650371 359.263769 -189.638215 344.275924 -189.638215 325.785831 C -189.638215 325.785831 -189.638215 -325.784968 -189.638215 -325.784968 C -189.638215 -344.275061 -174.650371 -359.262905 -156.166634 -359.262905 C -156.166634 -359.262905 156.162758 -359.262905 156.162758 -359.262905 C 174.652851 -359.262905 189.634339 -344.275061 189.634339 -325.784968 C 189.634339 -325.784968 189.634339 325.785831 189.634339 325.785831 C 189.634339 344.275924 174.652851 359.263769 156.162758 359.263769 Z M 156.162758 359.263769 " stroke="#253237" stroke-width="2" stroke-opacity="1" stroke-miterlimit="10"/><path stroke-linecap="butt" transform="matrix(0.614561, 0, 0, 0.614561, 174.430878, 243.501981)" fill-opacity="1" fill="#253237" fill-rule="nonzero" stroke-linejoin="miter" d="M 77.447971 17.361828 C 77.447971 17.361828 -77.445491 17.361828 -77.445491 17.361828 C -83.223248 17.361828 -87.9141 12.677332 -87.9141 6.893219 C -87.9141 6.893219 -87.9141 -6.893309 -87.9141 -6.893309 C -87.9141 -12.677422 -83.223248 -17.361918 -77.445491 -17.361918 C -77.445491 -17.361918 77.447971 -17.361918 77.447971 -17.361918 C 83.225728 -17.361918 87.910224 -12.677422 87.910224 -6.893309 C 87.910224 -6.893309 87.910224 6.893219 87.910224 6.893219 C 87.910224 12.677332 83.225728 17.361828 77.447971 17.361828 Z M 77.447971 17.361828 " stroke="#253237" stroke-width="2" stroke-opacity="1" stroke-miterlimit="10"/><path stroke-linecap="round" transform="matrix(0.614561, 0, 0, 0.614561, 125.944514, 279.332085)" fill-opacity="1" fill="#b27f0f" fill-rule="nonzero" stroke-linejoin="round" d="M 7.171057 -0.0000869632 C 7.171057 3.959806 3.961192 7.169671 0.00129887 7.169671 C -3.958594 7.169671 -7.174815 3.959806 -7.174815 -0.0000869632 C -7.174815 -3.95998 -3.958594 -7.169845 0.00129887 -7.169845 C 3.961192 -7.169845 7.171057 -3.95998 7.171057 -0.0000869632 Z M 7.171057 -0.0000869632 " stroke="#b27f0f" stroke-width="1" stroke-opacity="1" stroke-miterlimit="4"/><path stroke-linecap="butt" transform="matrix(0.614561, 0, 0, 0.614561, 310.662679, 685.420175)" fill-opacity="1" fill="#253237" fill-rule="nonzero" stroke-linejoin="miter" d="M 61.002398 0.0790408 C 60.957904 33.773088 33.607313 61.047406 -0.0803786 61.002913 C -33.76807 60.95842 -61.048744 33.607828 -61.00425 -0.0798634 C -60.959757 -33.773911 -33.609166 -61.041872 0.0785256 -61.003735 C 33.772573 -60.952886 61.046891 -33.60865 61.002398 0.0790408 Z M 61.002398 0.0790408 " stroke="#253237" stroke-width="2" stroke-opacity="1" stroke-miterlimit="10"/><path stroke-linecap="butt" transform="matrix(0.614561, 0, 0, 0.614561, 310.662679, 685.420175)" fill-opacity="1" fill="#ffffff" fill-rule="nonzero" stroke-linejoin="miter" d="M 47.076033 0.0599723 C 47.037896 26.063056 25.935418 47.108329 -0.0613101 47.070192 C -26.058038 47.038411 -47.109667 25.935933 -47.07153 -0.0607949 C -47.039749 -26.057523 -25.937271 -47.109152 0.0594571 -47.071015 C 26.062541 -47.039234 47.107814 -25.936755 47.076033 0.0599723 Z M 47.076033 0.0599723 " stroke="#253237" stroke-width="2" stroke-opacity="1" stroke-miterlimit="10"/><path stroke-linecap="butt" transform="matrix(0.614561, 0, 0, 0.614561, 310.663293, 685.420175)" fill-opacity="1" fill="#253237" fill-rule="nonzero" stroke-linejoin="miter" d="M 31.229107 0.0409038 C 31.210038 17.291544 17.2074 31.256046 -0.0432404 31.230621 C -17.287525 31.205196 -31.252026 17.208914 -31.232958 -0.0417264 C -31.207533 -17.286011 -17.204894 -31.250512 0.0393898 -31.231444 C 17.29003 -31.206019 31.254532 -17.20338 31.229107 0.0409038 Z M 31.229107 0.0409038 " stroke="#253237" stroke-width="2" stroke-opacity="1" stroke-miterlimit="10"/><path fill="#253237" d="M 316.449219 685.429688 C 316.445312 688.625 313.851562 691.210938 310.65625 691.207031 C 307.460938 691.203125 304.875 688.609375 304.878906 685.414062 C 304.882812 682.21875 307.476562 679.632812 310.671875 679.636719 C 313.867188 679.640625 316.453125 682.234375 316.449219 685.429688 Z M 316.449219 685.429688 " fill-opacity="1" fill-rule="nonzero"/><path stroke-linecap="round" transform="matrix(0.614561, 0, 0, 0.614561, 493.381386, 580.687995)" fill-opacity="1" fill="#b27f0f" fill-rule="nonzero" stroke-linejoin="round" d="M 19.420415 74.48713 C 19.420415 74.48713 40.484756 68.734798 40.484756 68.734798 C 40.484756 68.734798 20.875977 11.37038 -30.729752 -74.48874 C -35.31255 -72.569177 -40.48647 -71.03734 -40.48647 -71.03734 C -40.48647 -71.03734 19.420415 74.48713 19.420415 74.48713 Z M 19.420415 74.48713 " stroke="#253237" stroke-width="2" stroke-opacity="1" stroke-miterlimit="4"/><path stroke-linecap="butt" transform="matrix(0.614561, 0, 0, 0.614561, 274.725647, 629.576282)" fill-opacity="1" fill="#ffffff" fill-rule="nonzero" stroke-linejoin="miter" d="M 22.39427 -25.281838 C 22.39427 -25.281838 6.141548 -25.307262 6.141548 -25.307262 C 1.717655 -25.313619 -2.439279 -23.209727 -5.064376 -19.650273 C -5.064376 -19.650273 -18.780987 -1.033056 -18.780987 -1.033056 C -22.175181 3.581522 -22.391291 9.810567 -19.321261 14.653967 C -19.321261 14.653967 -12.558298 25.313261 -12.558298 25.313261 C -12.558298 25.313261 22.39427 -25.281838 22.39427 -25.281838 Z M 22.39427 -25.281838 " stroke="#253237" stroke-width="2" stroke-opacity="1" stroke-miterlimit="10"/><path stroke-linecap="butt" transform="matrix(0.614561, 0, 0, 0.614561, 521.19206, 685.69732)" fill-opacity="1" fill="#253237" fill-rule="nonzero" stroke-linejoin="miter" d="M 60.999083 0.0793639 C 60.960946 33.773411 33.610354 61.047729 -0.0836935 61.003236 C -33.771385 60.958743 -61.045702 33.608151 -61.001209 -0.0795403 C -60.956716 -33.773588 -33.612481 -61.047905 0.0815669 -61.003412 C 33.769258 -60.958919 61.043576 -33.608327 60.999083 0.0793639 Z M 60.999083 0.0793639 " stroke="#253237" stroke-width="2" stroke-opacity="1" stroke-miterlimit="10"/><path stroke-linecap="butt" transform="matrix(0.614561, 0, 0, 0.614561, 521.19206, 685.69732)" fill-opacity="1" fill="#ffffff" fill-rule="nonzero" stroke-linejoin="miter" d="M 47.072718 0.0602954 C 47.040937 26.057023 25.938459 47.108652 -0.0582688 47.070515 C -26.061353 47.038734 -47.106626 25.936256 -47.074845 -0.0604718 C -47.036708 -26.0572 -25.934229 -47.108829 0.0624984 -47.070692 C 26.059226 -47.038911 47.110855 -25.936432 47.072718 0.0602954 Z M 47.072718 0.0602954 " stroke="#253237" stroke-width="2" stroke-opacity="1" stroke-miterlimit="10"/><path stroke-linecap="butt" transform="matrix(0.614561, 0, 0, 0.614561, 521.19206, 685.69732)" fill-opacity="1" fill="#253237" fill-rule="nonzero" stroke-linejoin="miter" d="M 31.233147 0.0412269 C 31.207722 17.291867 17.205084 31.250013 -0.0392003 31.230944 C -17.289841 31.205519 -31.254342 17.209237 -31.228918 -0.0414033 C -31.209849 -17.285688 -17.207211 -31.250189 0.0434299 -31.23112 C 17.287714 -31.205696 31.252216 -17.203057 31.233147 0.0412269 Z M 31.233147 0.0412269 " stroke="#253237" stroke-width="2" stroke-opacity="1" stroke-miterlimit="10"/><path stroke-linecap="round" transform="matrix(0.614561, 0, 0, 0.614561, 514.01832, 665.968673)" fill-opacity="1" fill="#d4d4d4" fill-rule="nonzero" stroke-linejoin="round" d="M 19.362859 31.641131 C 19.362859 31.641131 5.894138 36.624366 5.894138 36.624366 C 5.894138 36.624366 -19.358918 -31.64088 -19.358918 -31.64088 C -19.358918 -31.64088 -5.890197 -36.624116 -5.890197 -36.624116 C -5.890197 -36.624116 19.362859 31.641131 19.362859 31.641131 Z M 19.362859 31.641131 " stroke="#253237" stroke-width="2" stroke-opacity="1" stroke-miterlimit="4"/><path stroke-linecap="round" transform="matrix(0.614561, 0, 0, 0.614561, 521.19206, 685.69732)" fill-opacity="1" fill="#d4d4d4" fill-rule="nonzero" stroke-linejoin="round" d="M 9.412422 0.00944607 C 9.406066 5.208792 5.18557 9.422931 -0.0137757 9.410219 C -5.213121 9.403863 -9.420905 5.183367 -9.414548 -0.0159786 C -9.408192 -5.208968 -5.187697 -9.423107 0.011649 -9.416751 C 5.210995 -9.404039 9.418778 -5.189899 9.412422 0.00944607 Z M 9.412422 0.00944607 " stroke="#253237" stroke-width="2" stroke-opacity="1" stroke-miterlimit="4"/><path stroke-linecap="round" transform="matrix(0.614561, 0, 0, 0.614561, 316.977913, 665.968673)" fill-opacity="1" fill="#d4d4d4" fill-rule="nonzero" stroke-linejoin="round" d="M -19.363086 31.641131 C -19.363086 31.641131 -5.88801 36.624366 -5.88801 36.624366 C -5.88801 36.624366 19.365047 -31.64088 19.365047 -31.64088 C 19.365047 -31.64088 5.88997 -36.624116 5.88997 -36.624116 C 5.88997 -36.624116 -19.363086 31.641131 -19.363086 31.641131 Z M -19.363086 31.641131 " stroke="#253237" stroke-width="2" stroke-opacity="1" stroke-miterlimit="4"/><path stroke-linecap="round" transform="matrix(0.614561, 0, 0, 0.614561, 309.804135, 685.69732)" fill-opacity="1" fill="#d4d4d4" fill-rule="nonzero" stroke-linejoin="round" d="M -9.412587 0.00944607 C -9.40623 5.208792 -5.185735 9.422931 0.0136109 9.410219 C 5.212956 9.403863 9.42074 5.183367 9.414384 -0.0159786 C 9.408027 -5.208968 5.187532 -9.423107 -0.0118138 -9.416751 C -5.211159 -9.404039 -9.418943 -5.189899 -9.412587 0.00944607 Z M -9.412587 0.00944607 " stroke="#253237" stroke-width="2" stroke-opacity="1" stroke-miterlimit="4"/><path stroke-linecap="round" transform="matrix(0.614561, 0, 0, 0.614561, 509.256065, 636.288528)" fill-opacity="1" fill="#b27f0f" fill-rule="nonzero" stroke-linejoin="round" d="M -28.955859 37.928125 C -28.955859 37.928125 21.003623 13.380603 74.033134 27.027296 C 73.645408 -0.552117 52.473011 -37.926386 -10.777218 -22.735144 C -74.033804 -7.537546 -28.955859 37.928125 -28.955859 37.928125 Z M -28.955859 37.928125 " stroke="#253237" stroke-width="2" stroke-opacity="1" stroke-miterlimit="4"/><path stroke-linecap="butt" transform="matrix(0.614561, 0, 0, 0.614561, 483.657781, 520.760347)" fill-opacity="1" fill="#ffffff" fill-rule="nonzero" stroke-linejoin="miter" d="M -1.97926 -20.559971 C -1.97926 -20.559971 11.476748 3.186673 -0.866931 20.564437 C -11.475375 17.939339 -1.97926 -20.559971 -1.97926 -20.559971 Z M -1.97926 -20.559971 " stroke="#253237" stroke-width="2" stroke-opacity="1" stroke-miterlimit="10"/><path stroke-linecap="round" transform="matrix(0.614561, 0, 0, 0.614561, 377.297029, 609.048714)" fill-opacity="1" fill="#b27f0f" fill-rule="nonzero" stroke-linejoin="round" d="M 166.925437 52.65786 C 166.925437 52.65786 164.122367 53.261696 160.645543 53.280765 C 155.102964 87.407032 134.953911 122.219765 121.764862 122.200696 C 102.524741 122.181628 18.864856 122.067217 -42.8154 121.97823 C -42.8154 121.97823 -46.037977 92.561884 -62.443247 92.530103 C -78.854874 92.511035 -137.357045 92.441117 -193.933298 92.358487 C -172.875313 1.287309 -104.934232 -28.040051 -83.437671 -28.020982 C -61.934754 -27.989201 50.664765 -27.84301 50.664765 -27.84301 C 48.376545 -3.511598 21.775981 -0.149185 17.212252 24.169515 C 14.256634 39.939168 17.244033 58.340275 19.716582 69.317377 C 20.994172 75.069709 26.015545 79.188506 31.907713 79.321986 C 51.726245 79.72878 96.403751 80.122863 111.63313 75.787956 C 125.902728 71.739077 139.00279 60.050084 148.193809 39.049304 C 148.416275 38.547167 148.632385 38.038673 148.842139 37.53018 C 149.013755 37.14881 149.172659 36.761084 149.325207 36.367001 C 149.477755 36.011056 149.623947 35.648754 149.757427 35.280096 C 171.037878 -20.298238 130.707991 -116.638679 130.707991 -116.638679 C 130.707991 -116.638679 135.093747 -122.219395 137.712488 -120.662133 C 193.932796 -8.132532 166.925437 52.65786 166.925437 52.65786 Z M 166.925437 52.65786 " stroke="#253237" stroke-width="2" stroke-opacity="1" stroke-miterlimit="4"/><path stroke-linecap="round" transform="matrix(0.614561, 0, 0, 0.614561, 312.854828, 636.200599)" fill-opacity="1" fill="#b27f0f" fill-rule="nonzero" stroke-linejoin="round" d="M -91.909149 53.2688 C -91.909149 53.2688 68.501467 53.478554 68.501467 53.478554 C 68.501467 53.478554 91.911234 3.436442 73.274949 -25.020123 C 54.638664 -53.483044 -22.181985 -44.667039 -54.897182 -15.854529 C -87.61238 12.957982 -91.909149 53.2688 -91.909149 53.2688 Z M -91.909149 53.2688 " stroke="#253237" stroke-width="2" stroke-opacity="1" stroke-miterlimit="4"/><path stroke-linecap="butt" transform="matrix(0.614561, 0, 0, 0.614561, 417.606059, 608.317414)" fill-opacity="1" fill="#253237" fill-rule="nonzero" stroke-linejoin="miter" d="M 24.076204 112.108455 C -1.57729 112.070318 -89.883535 111.962263 -111.411876 111.930482 C -111.411876 111.930482 -112.98185 106.051027 -112.98185 106.051027 C -112.98185 106.051027 -8.162281 106.190862 21.11423 106.228999 C 50.397097 106.267136 108.142885 60.928589 96.587371 -8.677809 C 86.163255 -71.387764 70.692342 -104.490688 67.736724 -110.440061 C 67.406203 -111.08839 67.234586 -111.418911 67.234586 -111.418911 C 67.234586 -111.418911 69.643574 -112.14987 69.643574 -112.14987 C 69.777054 -111.889267 69.935958 -111.571459 70.11393 -111.209157 C 74.436125 -102.412221 91.388025 -65.228637 101.418059 -4.851396 C 112.986285 64.761358 53.352715 112.152948 24.076204 112.108455 Z M 24.076204 112.108455 " stroke="#253237" stroke-width="1" stroke-opacity="1" stroke-miterlimit="10"/><path stroke-linecap="butt" transform="matrix(0.614561, 0, 0, 0.614561, 417.606059, 608.317414)" fill-opacity="1" fill="#253237" fill-rule="nonzero" stroke-linejoin="miter" d="M 24.076204 112.108455 C -1.57729 112.070318 -89.883535 111.962263 -111.411876 111.930482 C -111.411876 111.930482 -112.98185 106.051027 -112.98185 106.051027 C -112.98185 106.051027 -8.162281 106.190862 21.11423 106.228999 C 50.397097 106.267136 108.142885 60.928589 96.587371 -8.677809 C 86.163255 -71.387764 70.692342 -104.490688 67.736724 -110.440061 C 67.406203 -111.08839 67.234586 -111.418911 67.234586 -111.418911 C 67.234586 -111.418911 69.643574 -112.14987 69.643574 -112.14987 C 69.777054 -111.889267 69.935958 -111.571459 70.11393 -111.209157 C 74.436125 -102.412221 91.388025 -65.228637 101.418059 -4.851396 C 112.986285 64.761358 53.352715 112.152948 24.076204 112.108455 Z M 24.076204 112.108455 " stroke="#253237" stroke-width="2" stroke-opacity="1" stroke-miterlimit="10"/><path stroke-linecap="butt" transform="matrix(0.614561, 0, 0, 0.614561, 367.84446, 580.158834)" fill-opacity="1" fill="#253237" fill-rule="nonzero" stroke-linejoin="miter" d="M -59.177081 -9.849909 C -59.177081 -9.849909 -80.432107 18.975314 -58.153738 19.007094 C -35.875369 19.038875 59.962935 19.165999 66.045788 19.172355 C 72.128641 19.178711 80.436153 -4.154782 69.192091 -5.012865 C 57.94803 -5.877304 23.141653 -1.682233 -3.160171 -7.657031 C -29.468351 -13.631829 -51.104748 -19.180764 -59.177081 -9.849909 Z M -59.177081 -9.849909 " stroke="#253237" stroke-width="2" stroke-opacity="1" stroke-miterlimit="10"/><path stroke-linecap="round" transform="matrix(0.614561, 0, 0, 0.614561, 431.344552, 594.892297)" fill-opacity="1" fill="#b27f0f" fill-rule="nonzero" stroke-linejoin="round" d="M 87.879075 128.194835 C 69.179229 143.862789 54.750727 150.212601 33.527481 150.187177 C 12.310592 150.155396 -129.431958 149.977423 -129.431958 149.977423 C -129.431958 149.977423 -133.766865 133.77555 -133.766865 133.77555 C -112.238523 133.807331 -23.932279 133.915386 1.721216 133.953523 C 30.997726 133.998016 90.631296 86.606426 79.06307 16.993673 C 69.033037 -43.383569 52.081136 -80.567153 47.758942 -89.364089 C 47.580969 -89.726391 47.422065 -90.044199 47.288585 -90.304802 C 47.288585 -90.304802 44.879598 -89.573843 44.879598 -89.573843 C 44.879598 -89.573843 45.051214 -89.243322 45.381735 -88.594993 C 44.002447 -88.143705 43.182501 -87.876746 43.182501 -87.876746 C 43.182501 -87.876746 30.69263 -111.445417 29.63115 -115.055721 C 28.582383 -118.666025 33.457564 -120.992382 47.479271 -134.124225 C 61.507334 -147.262425 74.880711 -150.218043 84.408608 -141.08423 C 79.952934 -131.963128 84.357758 -99.286068 84.357758 -99.286068 C 84.357758 -99.286068 77.137151 -98.447054 73.749314 -97.595327 C 72.732327 -97.347436 69.547886 -96.355874 65.600706 -95.103709 C 69.427119 -87.622499 104.659359 -18.658075 112.661775 2.743144 C 121.109123 25.396527 133.77061 86.237769 87.879075 128.194835 Z M 87.879075 128.194835 " stroke="#253237" stroke-width="2" stroke-opacity="1" stroke-miterlimit="4"/><path stroke-linecap="butt" transform="matrix(0.614561, 0, 0, 0.614561, 468.328809, 504.106362)" fill-opacity="1" fill="#253237" fill-rule="nonzero" stroke-linejoin="miter" d="M -14.760135 27.050399 C -14.760135 27.050399 -15.726272 25.416864 -15.726272 25.416864 C -15.726272 25.416864 3.532917 14.032966 3.532917 14.032966 C 4.963055 13.193952 5.96733 11.776527 6.29785 10.155704 C 6.29785 10.155704 13.874403 -27.046948 13.874403 -27.046948 C 13.874403 -27.046948 15.724048 -26.671935 15.724048 -26.671935 C 15.724048 -26.671935 8.147495 10.537074 8.147495 10.537074 C 7.715276 12.679103 6.380481 14.547816 4.499055 15.660145 C 4.499055 15.660145 -14.760135 27.050399 -14.760135 27.050399 Z M -14.760135 27.050399 " stroke="#253237" stroke-width="2" stroke-opacity="1" stroke-miterlimit="10"/><path stroke-linecap="round" transform="matrix(0.614561, 0, 0, 0.614561, 475.058224, 484.495738)" fill-opacity="1" fill="#b27f0f" fill-rule="nonzero" stroke-linejoin="round" d="M 6.877976 1.170114 C 5.231729 10.818778 0.826904 18.122015 -2.974085 17.480042 C -6.768717 16.831713 -8.516663 8.486064 -6.876772 -1.168956 C -5.23688 -10.823975 -0.8257 -18.120856 2.968933 -17.478883 C 6.769921 -16.830554 8.517867 -8.484905 6.877976 1.170114 Z M 6.877976 1.170114 " stroke="#253237" stroke-width="2" stroke-opacity="1" stroke-miterlimit="4"/><path stroke-linecap="butt" transform="matrix(0.614561, 0, 0, 0.614561, 474.483, 484.256671)" fill-opacity="1" fill="#ffffff" fill-rule="nonzero" stroke-linejoin="miter" d="M 3.618897 0.61205 C 2.531992 6.974575 0.0403744 11.856112 -1.955462 11.519235 C -3.957655 11.182358 -4.694971 5.747834 -3.614422 -0.61469 C -2.533874 -6.977215 -0.0358996 -11.858752 1.959937 -11.521875 C 3.955774 -11.178642 4.699446 -5.750474 3.618897 0.61205 Z M 3.618897 0.61205 " stroke="#253237" stroke-width="2" stroke-opacity="1" stroke-miterlimit="10"/><path stroke-linecap="butt" transform="matrix(0.614561, 0, 0, 0.614561, 446.801356, 525.546532)" fill-opacity="1" fill="#253237" fill-rule="nonzero" stroke-linejoin="miter" d="M 5.776822 2.117162 C 4.607287 5.307958 1.073258 6.947849 -2.117538 5.778314 C -5.308335 4.608779 -6.948226 1.07475 -5.778691 -2.116046 C -4.609156 -5.306843 -1.075127 -6.946734 2.11567 -5.777199 C 5.306466 -4.607664 6.946357 -1.073635 5.776822 2.117162 Z M 5.776822 2.117162 " stroke="#253237" stroke-width="2" stroke-opacity="1" stroke-miterlimit="10"/><path stroke-linecap="butt" transform="matrix(0.614561, 0, 0, 0.614561, 456.498512, 521.033847)" fill-opacity="1" fill="#253237" fill-rule="nonzero" stroke-linejoin="miter" d="M 5.780178 2.118734 C 4.610643 5.309531 1.076614 6.949422 -2.114183 5.779887 C -5.304979 4.610352 -6.94487 1.076323 -5.775335 -2.114474 C -4.612157 -5.30527 -1.071771 -6.945162 2.119025 -5.775627 C 5.309822 -4.606092 6.949713 -1.072062 5.780178 2.118734 Z M 5.780178 2.118734 " stroke="#253237" stroke-width="2" stroke-opacity="1" stroke-miterlimit="10"/><path stroke-linecap="butt" transform="matrix(0.614561, 0, 0, 0.614561, 451.601065, 523.394377)" fill-opacity="1" fill="#253237" fill-rule="nonzero" stroke-linejoin="miter" d="M -11.516568 -1.404462 C -11.516568 -1.404462 5.25736 -9.356028 5.25736 -9.356028 C 5.25736 -9.356028 11.518186 1.182498 11.518186 1.182498 C 11.518186 1.182498 -5.935852 9.356531 -5.935852 9.356531 C -5.935852 9.356531 -11.516568 -1.404462 -11.516568 -1.404462 Z M -11.516568 -1.404462 " stroke="#253237" stroke-width="2" stroke-opacity="1" stroke-miterlimit="10"/><path stroke-linecap="round" transform="matrix(0.614561, 0, 0, 0.614561, 299.521301, 589.709721)" fill-opacity="1" fill="#d4d4d4" fill-rule="nonzero" stroke-linejoin="round" d="M 95.066328 14.977112 C 95.066328 14.977112 31.987715 14.894482 31.987715 14.894482 C 27.500261 14.888126 23.286121 12.491851 20.978832 8.640013 C 20.978832 8.640013 13.281512 -4.231228 13.281512 -4.231228 C 12.499704 -5.540598 11.06321 -6.354188 9.544086 -6.354188 C 9.544086 -6.354188 -95.072086 -6.494024 -95.072086 -6.494024 C -97.417512 -6.494024 -99.318007 -8.394518 -99.31165 -10.739944 C -99.31165 -13.08537 -97.4048 -14.979508 -95.06573 -14.979508 C -95.06573 -14.979508 9.556798 -14.839672 9.556798 -14.839672 C 14.037896 -14.833316 18.258392 -12.437041 20.559325 -8.591559 C 20.559325 -8.591559 28.263001 4.286038 28.263001 4.286038 C 29.04481 5.589052 30.474947 6.408998 32.000428 6.408998 C 32.000428 6.408998 95.072684 6.491628 95.072684 6.491628 C 97.41811 6.497984 99.312249 8.398478 99.312249 10.743904 C 99.305892 13.082974 97.405398 14.983469 95.066328 14.977112 Z M 95.066328 14.977112 " stroke="#253237" stroke-width="2" stroke-opacity="1" stroke-miterlimit="4"/><path stroke-linecap="round" transform="matrix(0.614561, 0, 0, 0.614561, 274.25427, 539.732443)" fill-opacity="1" fill="#b27f0f" fill-rule="nonzero" stroke-linejoin="round" d="M 65.296324 66.501375 C 65.296324 66.501375 -65.469124 66.329758 -65.469124 66.329758 C -68.856961 66.323402 -71.602826 63.571181 -71.59647 60.183344 C -71.59647 60.183344 -71.437566 -60.374098 -71.437566 -60.374098 C -71.437566 -63.761936 -68.685345 -66.5078 -65.297507 -66.501444 C -65.297507 -66.501444 65.46794 -66.329828 65.46794 -66.329828 C 68.862134 -66.323471 71.601643 -63.571251 71.595287 -60.183413 C 71.595287 -60.183413 71.436382 60.374029 71.436382 60.374029 C 71.436382 63.761866 68.684162 66.507731 65.296324 66.501375 Z M 65.296324 66.501375 " stroke="#253237" stroke-width="2" stroke-opacity="1" stroke-miterlimit="4"/><path stroke-linecap="round" transform="matrix(0.614561, 0, 0, 0.614561, 274.295456, 506.916707)" fill-opacity="1" fill="#b27f0f" fill-rule="nonzero" stroke-linejoin="round" d="M 74.026244 13.566116 C 74.026244 13.566116 74.045313 -1.663263 74.045313 -1.663263 C 74.058025 -8.133842 68.814186 -13.384037 62.349963 -13.396749 C 62.349963 -13.396749 -62.307207 -13.56201 -62.307207 -13.56201 C -68.777786 -13.568366 -74.027981 -8.330883 -74.034337 -1.860304 C -74.034337 -1.860304 -74.053406 13.369075 -74.053406 13.369075 C -74.053406 13.369075 74.026244 13.566116 74.026244 13.566116 Z M 74.026244 13.566116 " stroke="#253237" stroke-width="2" stroke-opacity="1" stroke-miterlimit="4"/><path stroke-linecap="round" transform="matrix(0.598831, -0.138152, 0.138152, 0.598831, 323.473165, 471.185311)" fill-opacity="1" fill="#ffffff" fill-rule="nonzero" stroke-linejoin="round" d="M 41.727745 -19.821563 C 41.727745 -19.821563 -16.646067 53.234181 -16.646067 53.234181 C -29.611148 69.394999 -55.399388 48.481547 -42.434307 32.320729 C -17.209187 -6.699733 7.630396 -40.062266 32.185815 -69.393835 C 41.70666 -51.73755 55.400573 -46.712719 41.727745 -19.821563 Z M 41.727745 -19.821563 " stroke="#253237" stroke-width="2" stroke-opacity="1" stroke-miterlimit="4"/><path stroke-linecap="round" transform="matrix(0.598831, 0.138152, -0.138152, 0.598831, 434.058192, 470.198878)" fill-opacity="1" fill="#ffffff" fill-rule="nonzero" stroke-linejoin="round" d="M -38.299763 -20.909033 C -38.299763 -20.909033 10.288322 54.743504 10.288322 54.743504 C 22.116138 71.884235 49.967146 52.673621 38.139329 35.53289 C 15.745192 -5.438787 -6.714578 -40.700636 -29.21939 -71.888187 C -40.308556 -54.809417 -49.965386 -48.882952 -38.299763 -20.909033 Z M -38.299763 -20.909033 " stroke="#253237" stroke-width="2" stroke-opacity="1" stroke-miterlimit="4"/><path stroke-linecap="round" transform="matrix(0.614561, 0, 0, 0.614561, 379.864987, 469.340538)" fill-opacity="1" fill="#b27f0f" fill-rule="nonzero" stroke-linejoin="round" d="M -75.793724 -72.900022 C -61.606757 -81.620685 -47.724885 -89.20995 -34.440494 -94.5682 C -34.440494 -94.5682 27.93894 -99.646778 27.93894 -99.646778 C 44.484046 -93.360528 60.558795 -85.720413 75.788174 -75.652243 C 75.788174 -75.652243 43.892922 93.714214 43.892922 93.714214 C 2.037555 99.282217 -31.472163 99.644519 -52.64456 92.303144 C -52.64456 92.303144 -75.793724 -72.900022 -75.793724 -72.900022 Z M -75.793724 -72.900022 " stroke="#253237" stroke-width="2" stroke-opacity="1" stroke-miterlimit="4"/><path stroke-linecap="round" transform="matrix(0.614561, 0, 0, 0.614561, 379.245498, 404.838723)" fill-opacity="1" fill="#d4d4d4" fill-rule="nonzero" stroke-linejoin="round" d="M 21.008105 -32.052333 C 21.008105 -32.052333 19.005912 -3.087275 19.005912 -3.087275 C 19.005912 -3.087275 -9.78753 32.055979 -9.78753 32.055979 C -9.78753 32.055979 -21.012523 11.093337 -21.012523 11.093337 C -21.012523 11.093337 -21.012523 -16.848379 -21.012523 -16.848379 C -21.012523 -16.848379 21.008105 -32.052333 21.008105 -32.052333 Z M 21.008105 -32.052333 " stroke="#253237" stroke-width="2" stroke-opacity="1" stroke-miterlimit="4"/><path stroke-linecap="round" transform="matrix(0.614561, 0, 0, 0.614561, 379.245498, 395.498029)" fill-opacity="1" fill="#253237" fill-rule="nonzero" stroke-linejoin="round" d="M -20.141728 1.668524 C -20.141728 1.668524 -20.141728 11.571434 -20.141728 11.571434 C 1.367545 11.990941 12.090401 2.812634 20.13731 -11.990882 C 6.516041 -2.335862 -5.942048 1.897346 -20.141728 1.668524 Z M -20.141728 1.668524 " stroke="#253237" stroke-width="2" stroke-opacity="1" stroke-miterlimit="4"/><path stroke-linecap="round" transform="matrix(0.614561, 0, 0, 0.614561, 387.649644, 413.132817)" fill-opacity="1" fill="#ffffff" fill-rule="nonzero" stroke-linejoin="round" d="M -23.462581 18.560004 C -23.462581 18.560004 -8.576435 10.303341 -8.576435 10.303341 C -8.576435 10.303341 -0.249854 22.157595 -0.249854 22.157595 C -0.249854 22.157595 23.465009 -9.597821 23.465009 -9.597821 C 23.465009 -9.597821 11.750591 -22.15761 11.750591 -22.15761 C 11.750591 -22.15761 5.712231 -22.15761 5.712231 -22.15761 C 5.712231 -22.15761 5.330861 -16.58325 5.330861 -16.58325 C 5.330861 -16.58325 -23.462581 18.560004 -23.462581 18.560004 Z M -23.462581 18.560004 " stroke="#253237" stroke-width="2" stroke-opacity="1" stroke-miterlimit="4"/><path stroke-linecap="round" transform="matrix(0.614561, 0, 0, 0.614561, 365.964865, 416.515365)" fill-opacity="1" fill="#ffffff" fill-rule="nonzero" stroke-linejoin="round" d="M 11.822438 13.055993 C 11.822438 13.055993 1.46824 6.490071 1.46824 6.490071 C 1.46824 6.490071 -9.985575 18.064653 -9.985575 18.064653 C -9.985575 18.064653 -11.822508 -8.605828 -11.822508 -8.605828 C -11.822508 -8.605828 0.597445 -18.063807 0.597445 -18.063807 C 0.597445 -18.063807 0.597445 -7.90665 0.597445 -7.90665 C 0.597445 -7.90665 11.822438 13.055993 11.822438 13.055993 Z M 11.822438 13.055993 " stroke="#253237" stroke-width="2" stroke-opacity="1" stroke-miterlimit="4"/><path stroke-linecap="round" transform="matrix(0.614561, 0, 0, 0.614561, 377.479238, 534.021185)" fill-opacity="1" fill="#253237" fill-rule="nonzero" stroke-linejoin="round" d="M -48.76252 -12.94385 C -48.76252 -12.94385 -48.76252 3.919064 -48.76252 3.919064 C -19.123708 12.944823 13.737681 11.832494 48.760168 3.919064 C 48.760168 3.919064 47.774962 -11.532781 47.774962 -11.532781 C 10.298994 -5.818585 -22.447984 -5.6279 -48.76252 -12.94385 Z M -48.76252 -12.94385 " stroke="#253237" stroke-width="2" stroke-opacity="1" stroke-miterlimit="4"/><path stroke-linecap="round" transform="matrix(0.614561, 0, 0, 0.614561, 377.913149, 555.491449)" fill-opacity="1" fill="#253237" fill-rule="nonzero" stroke-linejoin="round" d="M -49.46857 -31.016899 C -49.46857 -31.016899 -54.407313 31.012946 -54.407313 31.012946 C -54.407313 31.012946 54.410286 31.012946 54.410286 31.012946 C 54.410286 31.012946 48.060474 -31.016899 48.060474 -31.016899 C 48.060474 -31.016899 -49.46857 -31.016899 -49.46857 -31.016899 Z M -49.46857 -31.016899 " stroke="#253237" stroke-width="2" stroke-opacity="1" stroke-miterlimit="4"/><path stroke-linecap="round" transform="matrix(0.614561, 0, 0, 0.614561, 358.831043, 603.045564)" fill-opacity="1" fill="#253237" fill-rule="nonzero" stroke-linejoin="round" d="M -22.753474 -52.919324 C -22.753474 -52.919324 -29.287615 51.442602 -29.287615 51.442602 C -29.287615 51.442602 17.290386 54.410932 17.290386 54.410932 C 17.290386 54.410932 29.284475 -54.406667 29.284475 -54.406667 C 29.284475 -54.406667 -22.753474 -52.919324 -22.753474 -52.919324 Z M -22.753474 -52.919324 " stroke="#253237" stroke-width="2" stroke-opacity="1" stroke-miterlimit="4"/><path stroke-linecap="round" transform="matrix(0.614561, 0, 0, 0.614561, 352.5699, 674.531256)" fill-opacity="1" fill="#253237" fill-rule="nonzero" stroke-linejoin="round" d="M -19.099613 -67.203775 C -19.099613 -67.203775 -27.782139 60.669616 -27.782139 60.669616 C -17.783887 66.135921 -4.283385 67.203757 13.081666 63.421837 C 13.081666 63.421837 27.777127 -64.654952 27.777127 -64.654952 C 27.777127 -64.654952 -19.099613 -67.203775 -19.099613 -67.203775 Z M -19.099613 -67.203775 " stroke="#253237" stroke-width="2" stroke-opacity="1" stroke-miterlimit="4"/><path stroke-linecap="round" transform="matrix(0.614561, 0, 0, 0.614561, 396.171109, 604.833316)" fill-opacity="1" fill="#253237" fill-rule="nonzero" stroke-linejoin="round" d="M -33.730937 -53.222287 C -33.730937 -53.222287 -13.689939 55.874983 -13.689939 55.874983 C -13.689939 55.874983 33.733432 51.50194 33.733432 51.50194 C 33.733432 51.50194 24.021207 -55.872809 24.021207 -55.872809 C 24.021207 -55.872809 -33.730937 -53.222287 -33.730937 -53.222287 Z M -33.730937 -53.222287 " stroke="#253237" stroke-width="2" stroke-opacity="1" stroke-miterlimit="4"/><path stroke-linecap="round" transform="matrix(0.614561, 0, 0, 0.614561, 405.901458, 674.852641)" fill-opacity="1" fill="#253237" fill-rule="nonzero" stroke-linejoin="round" d="M -29.897975 -60.092969 C -29.897975 -60.092969 -6.373796 64.309954 -6.373796 64.309954 C 5.569444 65.523982 17.671588 64.093844 29.894499 60.636089 C 29.894499 60.636089 17.620739 -65.527493 17.620739 -65.527493 C 17.620739 -65.527493 -29.897975 -60.092969 -29.897975 -60.092969 Z M -29.897975 -60.092969 " stroke="#253237" stroke-width="2" stroke-opacity="1" stroke-miterlimit="4"/><path stroke-linecap="round" transform="matrix(0.614561, 0, 0, 0.614561, 335.09549, 725.06232)" fill-opacity="1" fill="#253237" fill-rule="nonzero" stroke-linejoin="round" d="M 5.101172 -22.614953 C 1.268402 -10.735275 -8.659932 -2.33242 -21.359556 4.487748 C -31.777316 11.040957 -31.294247 16.170385 -28.561095 21.001073 C -12.219386 22.61554 7.472023 18.852688 31.77801 7.659476 C 31.77801 7.659476 31.77801 -22.614953 31.77801 -22.614953 C 31.77801 -22.614953 5.101172 -22.614953 5.101172 -22.614953 Z M 5.101172 -22.614953 " stroke="#253237" stroke-width="2" stroke-opacity="1" stroke-miterlimit="4"/><path fill="#253237" d="M 404.441406 714.5625 C 404.441406 714.5625 402.632812 728.207031 402.632812 728.207031 C 404.3125 733.824219 408.242188 737.558594 413.042969 740.570312 C 417.035156 738.546875 420.332031 735.285156 422.148438 729.378906 C 422.148438 729.378906 420.328125 711.945312 420.328125 711.945312 C 420.328125 711.945312 404.441406 714.5625 404.441406 714.5625 Z M 404.441406 714.5625 " fill-opacity="1" fill-rule="nonzero"/><g clip-path="url(#54fcb1a967)"><path stroke-linecap="round" transform="matrix(0.614561, 0, 0, 0.614561, 412.391831, 726.256984)" fill="none" stroke-linejoin="round" d="M -12.936764 -19.029019 C -12.936764 -19.029019 -15.87967 3.173076 -15.87967 3.173076 C -13.146517 12.313246 -6.752212 18.389743 1.059518 23.290349 C 7.555522 19.997853 12.920128 14.690453 15.875746 5.079927 C 15.875746 5.079927 12.913772 -23.287652 12.913772 -23.287652 C 12.913772 -23.287652 -12.936764 -19.029019 -12.936764 -19.029019 Z M -12.936764 -19.029019 " stroke="#253237" stroke-width="2" stroke-opacity="1" stroke-miterlimit="4"/></g><path stroke-linecap="round" transform="matrix(0.614561, 0, 0, 0.614561, 374.624633, 433.60262)" fill-opacity="1" fill="#ffffff" fill-rule="nonzero" stroke-linejoin="round" d="M -12.622753 -21.313953 C -12.622753 -21.313953 -0.990966 23.007608 -0.990966 23.007608 C -0.990966 23.007608 12.61759 -23.004693 12.61759 -23.004693 C 12.61759 -23.004693 -2.268555 -14.748031 -2.268555 -14.748031 C -2.268555 -14.748031 -12.622753 -21.313953 -12.622753 -21.313953 Z M -12.622753 -21.313953 " stroke="#253237" stroke-width="2" stroke-opacity="1" stroke-miterlimit="4"/><path stroke-linecap="round" transform="matrix(0.614561, 0, 0, 0.614561, 368.257149, 440.684186)" fill-opacity="1" fill="#ffffff" fill-rule="nonzero" stroke-linejoin="round" d="M -7.162323 -24.116265 C -7.162323 -24.116265 7.158124 24.120695 7.158124 24.120695 " stroke="#253237" stroke-width="2" stroke-opacity="1" stroke-miterlimit="4"/><path stroke-linecap="round" transform="matrix(0.614561, 0, 0, 0.614561, 381.362072, 438.860154)" fill-opacity="1" fill="#ffffff" fill-rule="nonzero" stroke-linejoin="round" d="M 5.58904 -18.294319 C 5.58904 -18.294319 -5.59146 18.291785 -5.59146 18.291785 " stroke="#253237" stroke-width="2" stroke-opacity="1" stroke-miterlimit="4"/><path stroke-linecap="round" transform="matrix(0.614561, 0, 0, 0.614561, 368.638196, 521.678345)" fill="none" stroke-linejoin="round" d="M -30.937875 -2.654694 C -11.665973 2.620926 9.118697 2.659063 30.939422 -0.900392 " stroke="#253237" stroke-width="2" stroke-opacity="1" stroke-miterlimit="4"/><path fill="#253237" d="M 388.328125 386.496094 C 383.867188 386.621094 365.902344 390.957031 365.902344 390.957031 C 365.902344 390.957031 365.902344 399.011719 365.902344 399.011719 C 365.902344 399.011719 376.929688 398.515625 376.929688 398.515625 C 376.929688 398.515625 390.3125 390.832031 390.3125 390.832031 C 390.3125 390.832031 392.789062 386.371094 388.328125 386.496094 Z M 388.328125 386.496094 " fill-opacity="1" fill-rule="nonzero"/><path stroke-linecap="round" transform="matrix(0.601131, 0.127774, -0.127774, 0.601131, 357.911412, 345.544409)" fill-opacity="1" fill="#253237" fill-rule="nonzero" stroke-linejoin="round" d="M -2.851404 -16.798408 C -4.844972 -3.4628 -2.220692 6.896316 1.111096 16.793135 C 1.111096 16.793135 4.841725 -16.373713 4.841725 -16.373713 C 4.841725 -16.373713 -2.851404 -16.798408 -2.851404 -16.798408 Z M -2.851404 -16.798408 " stroke="#253237" stroke-width="2" stroke-opacity="1" stroke-miterlimit="4"/><path stroke-linecap="round" transform="matrix(0.601131, 0.127774, -0.127774, 0.601131, 377.330369, 360.440265)" fill-opacity="1" fill="#d4d4d4" fill-rule="nonzero" stroke-linejoin="round" d="M 34.868705 -7.474657 C 34.868705 -7.474657 34.551518 13.594845 34.551518 13.594845 C 34.551518 13.594845 32.754367 38.890822 32.754367 38.890822 C 16.03144 50.64608 -1.661629 56.583745 -21.108169 52.009689 C -25.273764 51.030139 -28.61723 47.92639 -29.924103 43.856899 C -35.70153 25.908833 -36.353832 1.04253 -32.028273 -30.548254 C -17.10674 -56.586982 15.923366 -54.997675 36.352774 -33.509859 C 36.352774 -33.509859 34.868705 -7.474657 34.868705 -7.474657 Z M 34.868705 -7.474657 " stroke="#253237" stroke-width="2" stroke-opacity="1" stroke-miterlimit="4"/><path stroke-linecap="round" transform="matrix(0.601131, 0.127774, -0.127774, 0.601131, 402.813968, 365.907905)" fill-opacity="1" fill="#d4d4d4" fill-rule="nonzero" stroke-linejoin="round" d="M -7.541289 -7.555722 C -3.444116 -14.326941 7.917696 -9.879902 4.457972 1.479991 C 0.771369 10.977648 -3.506419 13.413989 -7.913533 14.324758 C -7.913533 14.324758 -7.541289 -7.555722 -7.541289 -7.555722 Z M -7.541289 -7.555722 " stroke="#253237" stroke-width="2" stroke-opacity="1" stroke-miterlimit="4"/><path stroke-linecap="round" transform="matrix(0.601131, 0.127774, -0.127774, 0.601131, 384.752451, 334.90406)" fill-opacity="1" fill="#253237" fill-rule="nonzero" stroke-linejoin="round" d="M 31.390601 35.68643 C 25.315354 31.928686 21.257852 23.570233 19.559928 9.804119 C 9.111061 14.085014 1.109537 11.964867 -4.761606 4.245345 C -12.211238 11.202799 -22.069699 13.889613 -33.609724 13.587298 C -43.222852 14.493452 -47.135058 9.81457 -45.811916 0.0200082 C -41.600954 -19.453325 -29.770692 -21.24013 -15.289644 -16.884267 C -9.336469 -35.681714 14.04068 -32.45649 15.452394 -16.888031 C 30.264576 -20.023461 38.422368 -16.831842 34.281645 -1.980641 C 43.890832 -1.040477 47.129649 4.138938 44.314936 13.366792 C 44.314936 13.366792 40.683619 33.457709 40.683619 33.457709 C 37.532009 32.724 34.436287 33.628946 31.390601 35.68643 Z M 31.390601 35.68643 " stroke="#253237" stroke-width="2" stroke-opacity="1" stroke-miterlimit="4"/><path stroke-linecap="round" transform="matrix(0.601131, 0.127774, -0.127774, 0.601131, 365.088642, 361.844853)" fill="none" stroke-linejoin="round" d="M 1.585708 -15.966984 C 1.021967 -4.189441 -1.528079 5.794427 -6.036918 13.991771 C -1.689824 15.550068 2.31067 15.96688 6.033433 15.474498 " stroke="#231f20" stroke-width="2" stroke-opacity="1" stroke-miterlimit="4"/><path stroke-linecap="round" transform="matrix(0.601131, 0.127774, -0.127774, 0.601131, 382.611992, 351.367659)" fill="none" stroke-linejoin="round" d="M -5.819594 -2.045367 C -0.669112 -2.821725 3.211297 -1.196722 5.820312 2.823426 " stroke="#231f20" stroke-width="2" stroke-opacity="1" stroke-miterlimit="4"/><path stroke-linecap="round" transform="matrix(0.601131, 0.127774, -0.127774, 0.601131, 364.153264, 346.166237)" fill="none" stroke-linejoin="round" d="M -4.600851 1.565656 C -2.262851 -0.458371 0.574839 -1.568398 4.600861 -0.481202 " stroke="#231f20" stroke-width="2" stroke-opacity="1" stroke-miterlimit="4"/><path stroke-linecap="round" transform="matrix(0.601131, 0.127774, -0.120137, 0.565201, 380.603927, 361.651314)" fill-opacity="1" fill="#253237" fill-rule="nonzero" stroke-linejoin="round" d="M 2.361429 0.000143614 C 2.365835 2.59087 1.303787 4.690095 -0.00138851 4.694882 C -1.307885 4.693056 -2.365174 2.589159 -2.363363 -0.00297317 C -2.361552 -2.595105 -1.305721 -4.692925 0.000776096 -4.691099 C 1.305951 -4.695885 2.36324 -2.591988 2.361429 0.000143614 Z M 2.361429 0.000143614 " stroke="#253237" stroke-width="2" stroke-opacity="1" stroke-miterlimit="4"/><path stroke-linecap="round" transform="matrix(0.601131, 0.127774, -0.120137, 0.565201, 361.455959, 355.83213)" fill-opacity="1" fill="#253237" fill-rule="nonzero" stroke-linejoin="round" d="M 1.866643 -0.000578483 C 1.871802 2.10619 1.030993 3.816747 -0.00248475 3.815402 C -1.035963 3.814056 -1.870572 2.10905 -1.869514 0.00087659 C -1.868455 -2.107297 -1.033864 -3.816449 -0.000386216 -3.815104 C 1.033092 -3.813758 1.867701 -2.108752 1.866643 -0.000578483 Z M 1.866643 -0.000578483 " stroke="#253237" stroke-width="2" stroke-opacity="1" stroke-miterlimit="4"/><path stroke-linecap="round" transform="matrix(0.601131, 0.127774, -0.127774, 0.601131, 371.94208, 380.868594)" fill="none" stroke-linejoin="round" d="M -5.491375 3.029862 C -0.284731 3.190298 3.374063 1.112964 5.487649 -3.189707 " stroke="#231f20" stroke-width="2" stroke-opacity="1" stroke-miterlimit="4"/><path stroke-linecap="round" transform="matrix(0.614561, -0.0000187453, 0.0000187453, 0.614561, 379.863932, 523.742403)" fill-opacity="1" fill="#d4d4d4" fill-rule="nonzero" stroke-linejoin="round" d="M 71.535965 54.073754 C 71.535965 54.073754 -71.535024 54.075746 -71.535024 54.075746 C -71.535024 54.075746 -71.538081 -54.074455 -71.538081 -54.074455 C -71.538081 -54.074455 71.532908 -54.076447 71.532908 -54.076447 C 71.532908 -54.076447 71.535965 54.073754 71.535965 54.073754 Z M 71.535965 54.073754 " stroke="#253237" stroke-width="2" stroke-opacity="1" stroke-miterlimit="4"/><path stroke-linecap="round" transform="matrix(0.614561, -0.0000187453, 0.0000187453, 0.614561, 412.921759, 523.741348)" fill-opacity="1" fill="#d4d4d4" fill-rule="nonzero" stroke-linejoin="round" d="M -17.741526 54.079104 C -17.741526 54.079104 17.744961 54.07383 17.744961 54.07383 C 17.744961 54.07383 17.741904 -54.076371 17.741904 -54.076371 C 17.741904 -54.076371 -17.744583 -54.077454 -17.744583 -54.077454 C -17.744583 -54.077454 -17.741526 54.079104 -17.741526 54.079104 Z M -17.741526 54.079104 " stroke="#253237" stroke-width="2" stroke-opacity="1" stroke-miterlimit="4"/><path fill="#253237" d="M 401.976562 556.308594 C 401.855469 556.308594 401.753906 541.570312 401.753906 523.390625 C 401.753906 505.207031 401.851562 490.46875 401.972656 490.46875 C 402.09375 490.46875 402.195312 505.207031 402.195312 523.390625 C 402.195312 541.570312 402.097656 556.308594 401.976562 556.308594 Z M 401.976562 556.308594 " fill-opacity="1" fill-rule="nonzero"/><path stroke-linecap="round" transform="matrix(0.614561, -0.0000187453, 0.0000187453, 0.614561, 367.717601, 497.772642)" fill-opacity="1" fill="#ffffff" fill-rule="nonzero" stroke-linejoin="round" d="M -8.128022 11.537492 C -8.128022 11.537492 8.1247 11.537987 8.1247 11.537987 C 8.1247 11.537987 8.125404 -11.534903 8.125404 -11.534903 C 8.125404 -11.534903 -8.127318 -11.535399 -8.127318 -11.535399 C -8.127318 -11.535399 -8.128022 11.537492 -8.128022 11.537492 Z M -8.128022 11.537492 " stroke="#253237" stroke-width="2" stroke-opacity="1" stroke-miterlimit="4"/><path stroke-linecap="round" transform="matrix(0.614561, -0.0000187453, 0.0000187453, 0.614561, 367.719181, 549.687034)" fill-opacity="1" fill="#ffffff" fill-rule="nonzero" stroke-linejoin="round" d="M -8.124237 11.536955 C -8.124237 11.536955 8.122129 11.537451 8.122129 11.537451 C 8.122129 11.537451 8.122833 -11.53544 8.122833 -11.53544 C 8.122833 -11.53544 -8.123533 -11.535935 -8.123533 -11.535935 C -8.123533 -11.535935 -8.124237 11.536955 -8.124237 11.536955 Z M -8.124237 11.536955 " stroke="#253237" stroke-width="2" stroke-opacity="1" stroke-miterlimit="4"/><path fill="#253237" d="M 336.535156 490.546875 C 336.535156 490.644531 356.035156 490.722656 380.085938 490.722656 C 404.144531 490.722656 423.640625 490.640625 423.640625 490.546875 C 423.640625 490.449219 404.144531 490.371094 380.085938 490.371094 C 356.035156 490.371094 336.535156 490.449219 336.535156 490.546875 Z M 336.535156 490.546875 " fill-opacity="1" fill-rule="nonzero"/><path stroke-linecap="round" transform="matrix(0.590786, 0.169281, -0.169281, 0.590786, 358.894267, 551.482819)" fill-opacity="1" fill="#d4d4d4" fill-rule="nonzero" stroke-linejoin="round" d="M -10.92481 -19.691472 C -3.335781 -18.335218 4.152283 -15.416061 11.592886 -11.762602 C 12.601679 -11.264835 13.508489 -10.5461 14.111641 -9.594893 C 15.094158 -8.058133 14.955568 -6.603464 13.884469 -5.218808 C 12.315321 -3.195547 9.526284 -2.5683 7.121999 -3.459642 C 7.121999 -3.459642 -1.381652 -6.623365 -1.381652 -6.623365 C 0.629515 -3.734974 3.000941 -1.273796 5.633184 0.874619 C 9.027235 3.651078 13.400626 4.930323 17.778933 4.634515 C 17.823456 4.628369 17.863619 4.630085 17.908142 4.62394 C 22.006199 4.342314 24.512915 9.052461 21.988658 12.288292 C 21.692967 12.663944 21.377194 13.038738 21.037837 13.400454 C 16.707356 18.039834 10.039971 19.692411 3.902686 18.072255 C -1.152624 16.743763 -6.179189 14.177211 -11.160027 9.739598 C -11.160027 9.739598 -24.511752 -4.690252 -24.511752 -4.690252 C -24.511752 -4.690252 -10.92481 -19.691472 -10.92481 -19.691472 Z M -10.92481 -19.691472 " stroke="#253237" stroke-width="2" stroke-opacity="1" stroke-miterlimit="4"/><path fill="#ffffff" d="M 304.84375 506.878906 C 296.160156 498.550781 310.019531 484.097656 318.703125 492.425781 C 318.703125 492.425781 358.332031 538.140625 358.332031 538.140625 C 358.332031 538.140625 345.445312 547.410156 345.445312 547.410156 C 345.445312 547.410156 304.84375 506.878906 304.84375 506.878906 Z M 304.84375 506.878906 " fill-opacity="1" fill-rule="nonzero"/><path stroke-linecap="butt" transform="matrix(0.590786, 0.169281, -0.169281, 0.590786, 329.873579, 528.498208)" fill="none" stroke-linejoin="miter" d="M 48.843534 2.325914 C 48.843534 2.325914 32.834289 22.603292 32.834289 22.603292 C 32.834289 22.603292 -48.842399 -22.599024 -48.842399 -22.599024 " stroke="#253237" stroke-width="2" stroke-opacity="1" stroke-miterlimit="10"/><path stroke-linecap="round" transform="matrix(0.590786, 0.169281, -0.169281, 0.590786, 342.525971, 519.90546)" fill="none" stroke-linejoin="round" d="M -38.489832 -24.866233 C -38.489832 -24.866233 32.89749 21.439619 32.89749 21.439619 " stroke="#253237" stroke-width="2" stroke-opacity="1" stroke-miterlimit="4"/><path stroke-linecap="round" transform="matrix(0.590786, 0.169281, -0.169281, 0.590786, 349.536447, 540.018892)" fill-opacity="1" fill="#ffffff" fill-rule="nonzero" stroke-linejoin="round" d="M 4.611207 -17.843458 C 4.611207 -17.843458 14.798212 -8.874111 14.798212 -8.874111 C 14.798212 -8.874111 -5.674606 17.839561 -5.674606 17.839561 C -5.674606 17.839561 -14.794493 11.440646 -14.794493 11.440646 C -14.794493 11.440646 4.611207 -17.843458 4.611207 -17.843458 Z M 4.611207 -17.843458 " stroke="#253237" stroke-width="2" stroke-opacity="1" stroke-miterlimit="4"/><path stroke-linecap="round" transform="matrix(0.590786, 0.169281, -0.169281, 0.590786, 303.253299, 498.224927)" fill="none" stroke-linejoin="round" d="M -0.995489 -9.338989 C -2.653949 4.994867 -1.913265 8.848984 6.366618 12.823975 " stroke="#253237" stroke-width="2" stroke-opacity="1" stroke-miterlimit="4"/><path stroke-linecap="round" transform="matrix(0.569872, -0.230067, 0.230067, 0.569872, 395.540031, 551.399805)" fill-opacity="1" fill="#d4d4d4" fill-rule="nonzero" stroke-linejoin="round" d="M 13.168265 -18.478508 C 5.481462 -17.928288 -2.274077 -15.815549 -10.059116 -12.967568 C -11.114386 -12.577899 -12.091312 -11.957817 -12.796418 -11.077196 C -13.934084 -9.651473 -13.948202 -8.190286 -13.027597 -6.701322 C -11.678376 -4.525222 -8.968982 -3.595906 -6.490637 -4.233609 C -6.490637 -4.233609 2.302859 -6.489386 2.302859 -6.489386 C -0.00490958 -3.829254 -2.620449 -1.62925 -5.462707 0.232458 C -9.131724 2.630925 -13.620709 3.443964 -17.935892 2.688918 C -17.981909 2.68405 -18.025546 2.673287 -18.069183 2.662525 C -22.115404 1.954372 -25.098032 6.371016 -22.927966 9.858714 C -22.673132 10.263197 -22.395856 10.663032 -22.098519 11.06411 C -18.284613 16.133971 -11.834598 18.477472 -5.558137 17.515531 C -0.391713 16.722364 4.87896 14.703182 10.299601 10.818399 C 10.299601 10.818399 25.100876 -2.124809 25.100876 -2.124809 C 25.100876 -2.124809 13.168265 -18.478508 13.168265 -18.478508 Z M 13.168265 -18.478508 " stroke="#253237" stroke-width="2" stroke-opacity="1" stroke-miterlimit="4"/><path fill="#ffffff" d="M 449.753906 506.765625 C 458.445312 498.449219 444.597656 483.984375 435.90625 492.300781 C 435.90625 492.300781 396.234375 537.976562 396.234375 537.976562 C 396.234375 537.976562 409.113281 547.257812 409.113281 547.257812 C 409.113281 547.257812 449.753906 506.765625 449.753906 506.765625 Z M 449.753906 506.765625 " fill-opacity="1" fill-rule="nonzero"/><path stroke-linecap="butt" transform="matrix(0.569872, -0.230067, 0.230067, 0.569872, 425.506975, 528.598822)" fill="none" stroke-linejoin="miter" d="M -49.8806 -3.68174 C -49.8806 -3.68174 -36.104233 18.173413 -36.104233 18.173413 C -36.104233 18.173413 49.884829 -18.173142 49.884829 -18.173142 " stroke="#253237" stroke-width="2" stroke-opacity="1" stroke-miterlimit="10"/><path stroke-linecap="round" transform="matrix(0.569872, -0.230067, 0.230067, 0.569872, 412.058887, 519.758351)" fill="none" stroke-linejoin="round" d="M 41.834982 -21.380768 C 41.834982 -21.380768 -34.974539 17.849164 -34.974539 17.849164 " stroke="#253237" stroke-width="2" stroke-opacity="1" stroke-miterlimit="4"/><path stroke-linecap="round" transform="matrix(0.569872, -0.230067, 0.230067, 0.569872, 404.96502, 539.928037)" fill-opacity="1" fill="#ffffff" fill-rule="nonzero" stroke-linejoin="round" d="M -2.566621 -18.27949 C -2.566621 -18.27949 -13.64183 -10.439853 -13.64183 -10.439853 C -13.64183 -10.439853 3.901381 18.282632 3.901381 18.282632 C 3.901381 18.282632 13.640919 12.885518 13.640919 12.885518 C 13.640919 12.885518 -2.566621 -18.27949 -2.566621 -18.27949 Z M -2.566621 -18.27949 " stroke="#253237" stroke-width="2" stroke-opacity="1" stroke-miterlimit="4"/><path stroke-linecap="round" transform="matrix(0.569872, -0.230067, 0.230067, 0.569872, 450.175655, 497.045897)" fill="none" stroke-linejoin="round" d="M 3.638645 -8.893474 C 3.216628 3.850236 3.414105 9.269702 -6.557129 14.408765 " stroke="#253237" stroke-width="2" stroke-opacity="1" stroke-miterlimit="4"/><path stroke-linecap="round" transform="matrix(0.614561, 0, 0, 0.614561, 167.305442, 432.855541)" fill="none" stroke-linejoin="round" d="M -67.827897 -248.678841 L -67.827897 -248.678841 " stroke="#b27f0f" stroke-width="7" stroke-opacity="1" stroke-miterlimit="4"/></svg>